<?xml version="1.0" standalone="no"?><!DOCTYPE svg PUBLIC "-//W3C//DTD SVG 1.1//EN" "http://www.w3.org/Graphics/SVG/1.1/DTD/svg11.dtd"><svg t="1544594368728" class="icon" style="" viewBox="0 0 1024 1024" version="1.1" xmlns="http://www.w3.org/2000/svg" p-id="5239" xmlns:xlink="http://www.w3.org/1999/xlink" width="32" height="32"><defs><style type="text/css"></style></defs><path d="M512 1024c282.29632 0 512-229.70368 512-512s-229.70368-512-512-512-512 229.70368-512 512 229.70368 512 512 512zM246.72256 112.31232c-28.0576 75.65312-42.02496 153.88672-39.87456 233.18528 1.59744 57.52832 11.42784 115.15904 29.34784 171.35616 13.9264 43.52 32.09216 84.95104 54.10816 123.12576 3.52256 6.144 7.20896 12.1856 10.91584 18.18624 3.03104 4.87424 8.25344 7.55712 13.59872 7.55712 2.90816 0 5.81632-0.77824 8.43776-2.39616 7.49568-4.66944 9.8304-14.52032 5.16096-22.016-3.52256-5.69344-7.00416-11.44832-10.40384-17.3056-20.82816-36.18816-38.11328-75.48928-51.32288-116.8384-16.9984-53.3504-26.33728-108.032-27.83232-162.52928-2.27328-83.456 13.312-165.84704 47.14496-246.84544 1.57696-3.85024 3.23584-7.61856 4.89472-11.38688 66.23232-34.57024 141.35296-54.39488 221.12256-54.39488 76.57472 0 148.74624 18.47296 213.03296 50.50368-79.36 13.53728-153.88672 40.5504-221.40928 82.0224-48.98816 30.04416-94.02368 67.42016-133.7344 111.06304-30.78144 33.75104-57.56928 70.26688-79.58528 108.42112-3.54304 6.144-7.00416 12.34944-10.30144 18.59584-4.15744 7.80288-1.18784 17.5104 6.61504 21.62688 2.37568 1.29024 4.95616 1.88416 7.49568 1.88416 5.7344 0 11.264-3.11296 14.11072-8.51968 3.13344-5.87776 6.36928-11.73504 9.76896-17.59232 20.86912-36.18816 46.30528-70.77888 75.50976-102.87104 37.72416-41.41056 80.42496-76.84096 126.85312-105.3696 71.20896-43.68384 150.34368-71.39328 235.33568-82.30912 4.66944-0.63488 9.37984-1.14688 14.09024-1.69984 125.3376 80.22016 210.82112 216.82176 220.71296 373.94432-51.38432-61.91104-112.0256-112.96768-181.69856-150.69184-50.62656-27.42272-105.51296-47.7184-163.10272-60.29312-51.83488-11.3664-104.05888-16.19968-154.97216-14.336-8.8064 0.34816-15.70816 7.74144-15.40096 16.60928 0.32768 8.64256 7.39328 15.40096 15.99488 15.40096 0.18432 0 0.38912 0 0.6144 0 47.86176-1.78176 97.73056 2.80576 146.98496 13.59872 54.62016 11.93984 106.68032 31.19104 154.66496 57.15968 73.44128 39.81312 136.99072 94.49472 190.64832 164.82304 2.29376 2.9696 4.5056 6.02112 6.7584 9.03168-6.88128 157.88032-89.86624 296.26368-213.66784 378.69568 28.0576-75.65312 42.02496-153.88672 39.87456-233.18528-1.59744-57.52832-11.42784-115.15904-29.34784-171.35616-13.9264-43.52-32.09216-84.95104-54.10816-123.12576-3.52256-6.144-7.20896-12.1856-10.91584-18.16576-4.66944-7.51616-14.56128-9.76896-22.016-5.16096-7.49568 4.66944-9.8304 14.52032-5.16096 22.016 3.52256 5.69344 7.00416 11.44832 10.40384 17.3056 20.82816 36.18816 38.11328 75.48928 51.32288 116.8384 16.9984 53.3504 26.33728 108.032 27.83232 162.52928 2.27328 83.41504-13.312 165.84704-47.14496 246.84544-1.59744 3.80928-3.23584 7.61856-4.89472 11.38688-66.27328 34.57024-141.37344 54.39488-221.14304 54.39488-76.57472 0-148.72576-18.47296-213.03296-50.50368 79.31904-13.53728 153.88672-40.5504 221.40928-82.0224 49.0496-30.1056 94.04416-67.4816 133.7344-111.06304 30.8224-33.792 57.61024-70.26688 79.58528-108.4416 3.54304-6.144 7.00416-12.34944 10.30144-18.59584 4.15744-7.80288 1.18784-17.5104-6.61504-21.62688-7.74144-4.15744-17.5104-1.14688-21.62688 6.61504-3.13344 5.89824-6.36928 11.73504-9.76896 17.59232-20.86912 36.18816-46.30528 70.77888-75.55072 102.87104-37.62176 41.3696-80.32256 76.8-126.81216 105.3696-71.20896 43.68384-150.34368 71.39328-235.33568 82.30912-4.66944 0.63488-9.37984 1.14688-14.09024 1.69984-125.3376-80.22016-210.82112-216.82176-220.71296-373.94432 51.38432 61.91104 112.0256 112.96768 181.69856 150.69184 50.62656 27.42272 105.51296 47.7184 163.10272 60.29312 44.6464 9.8304 89.6 14.7456 133.69344 14.7456 7.12704 0 14.17216-0.12288 21.27872-0.38912 8.8064-0.34816 15.70816-7.74144 15.40096-16.60928-0.32768-8.8064-6.5536-16.15872-16.60928-15.40096-47.80032 1.82272-97.73056-2.82624-146.98496-13.59872-54.62016-11.93984-106.68032-31.19104-154.66496-57.15968-73.44128-39.81312-136.99072-94.49472-190.64832-164.82304-2.31424-2.9696-4.5056-6.02112-6.7584-9.03168 6.90176-157.88032 89.92768-296.26368 213.68832-378.69568z" p-id="5240"></path></svg>