<?xml version="1.0" standalone="no"?><!DOCTYPE svg PUBLIC "-//W3C//DTD SVG 1.1//EN" "http://www.w3.org/Graphics/SVG/1.1/DTD/svg11.dtd"><svg class="icon" width="32px" height="32.00px" viewBox="0 0 1024 1024" version="1.1" xmlns="http://www.w3.org/2000/svg"><path fill="#404040" d="M835.2 878.08H222.08c-57.6 0-104.32-46.72-104.32-104.32V416.64c0-57.6 46.72-104.32 104.32-104.32h85.76c1.28 0 2.56-0.64 3.2-1.92L353.92 224c14.72-30.08 44.8-48.64 78.08-48.64h189.44c33.28 0 63.36 18.56 78.08 48.64 7.68 16 1.28 35.2-14.72 42.88-16 7.68-35.2 1.28-42.88-14.72-3.84-8.32-12.16-12.8-21.12-12.8H432c-8.96 0-16.64 5.12-21.12 12.8l-42.88 86.4c-11.52 23.04-34.56 37.76-60.8 37.76H222.08c-22.4 0-40.32 17.92-40.32 40.32v357.12c0 22.4 17.92 40.32 40.32 40.32h613.12c22.4 0 40.32-17.92 40.32-40.32V416.64c0-22.4-17.92-40.32-40.32-40.32h-180.48c-17.92 0-32-14.08-32-32s14.08-32 32-32h180.48c57.6 0 104.32 46.72 104.32 104.32v357.12c0 57.6-46.72 104.32-104.32 104.32z"  /><path fill="#404040" d="M528.64 757.76c-101.76 0-184.96-82.56-184.96-184.96 0-101.76 82.56-184.96 184.96-184.96s184.96 82.56 184.96 184.96c-0.64 102.4-83.2 184.96-184.96 184.96z m0-305.28c-66.56 0-120.96 54.4-120.96 120.96 0 66.56 54.4 120.96 120.96 120.96 66.56 0 120.96-54.4 120.96-120.96-0.64-67.2-54.4-120.96-120.96-120.96z"  /><path fill="#404040" d="M796.16 451.2m-37.12 0a37.12 37.12 0 1 0 74.24 0 37.12 37.12 0 1 0-74.24 0Z"  /></svg>